<?xml version="1.0" encoding="UTF-8"?>
<svg id="Layer_1" xmlns="http://www.w3.org/2000/svg" version="1.1" viewBox="0 0 99.08 100">
  <!-- Generator: Adobe Illustrator 29.5.1, SVG Export Plug-In . SVG Version: 2.1.0 Build 141)  -->
  <defs>
    <style>
      .st0 {
        fill: #3981ff;
      }
    </style>
  </defs>
  <path class="st0" d="M34.23,68.75c0-.1-.09-.19-.2-.18-.04,0-.08.02-.11.04-2.75,2.14-5.55,4.25-8.41,6.34-.61.45-1.4,1.03-2.12,1.24-2.78.8-5.59-.66-6.33-3.44-.12-.43-.17-1.66-.17-3.68,0-19.67,0-33.63-.02-41.86,0-2.01.15-3.55.47-4.63,1.45-4.97,5.56-8.51,10.79-9.4.69-.12,1.79-.17,3.32-.17,17.76.02,26.88.03,27.36.02,2.54-.01,4.63.18,6.28.56,9.19,2.15,17.14,10.65,17.13,20.46,0,4.7,0,8.16.01,10.4.01,2.43-.18,4.42-.59,5.94-.89,3.39-2.47,6.36-4.73,8.93-.18.21-.28.47-.28.75,0,.34.02,7.41.05,21.21,0,1.99-.33,3.4-1.84,4.53-1.81,1.35-3.85,1.54-6.11.56-1.32-.57-2.33-1.1-3.02-1.57-1.26-.86-2.69-1.61-4.31-2.27-.31-.13-.64-.19-.97-.18-4.75.08-9.06.08-12.92,0-.5,0-1.48-.25-2.92-.73-4.66-1.55-8.17-5.5-9.8-10.14-.34-.95-.52-1.86-.54-2.73ZM24.79,66.58c3.24-2.62,6.04-4.79,8.41-6.52.9-.66,2.1-.98,3.58-.98,6.59.02,14.02.04,22.3.04,2.34,0,4.07-.17,5.2-.5,2.09-.62,4.01-1.75,5.75-3.37,3.11-2.91,4.67-6.47,4.67-10.7,0-4.61-.02-7.94-.05-9.98-.02-1.27-.14-2.26-.36-2.98-1.72-5.59-5.38-9.05-10.97-10.39-.54-.13-1.13-.21-1.77-.23-.69-.03-1.29-.04-1.8-.04-7.21-.02-16.97-.03-29.29-.02-2.94,0-4.87,1.3-5.8,3.89-.04.13-.07.26-.07.4l-.16,41.21c0,.11.09.21.21.21.05,0,.09-.02.13-.05ZM69.14,79.1v-14.25c0-.1-.08-.18-.18-.18-.03,0-.06,0-.08.02-2.63,1.37-5.5,2.06-8.59,2.08-5,.03-11.4.03-19.21,0-.06,0-.11.05-.11.11,0,.01,0,.02,0,.03.55,1.75.95,3.2,2.18,4.6,1.78,2.03,4.08,3.07,6.92,3.11,2.51.04,5.21.04,8.08,0,.87,0,1.71.06,2.54.2,1.16.2,1.97.42,2.44.65,1.78.88,3.75,2.11,5.89,3.68.03.02.08.02.1-.01,0-.01.01-.03.01-.04Z"/>
</svg>