<?xml version="1.0" encoding="UTF-8"?>
<svg xmlns="http://www.w3.org/2000/svg" version="1.1" viewBox="0 0 957.77 247">
  <!-- Generator: Adobe Illustrator 29.5.1, SVG Export Plug-In . SVG Version: 2.1.0 Build 141)  -->
  <defs>
    <style>
      .st0 {
        fill: #3981ff;
      }

      .st1 {
        fill: #fff;
      }
    </style>
  </defs>
  <g id="Bubbles">
    <path class="st0" d="M71.76,176.36c-.01-.3-.26-.53-.55-.52-.11,0-.22.04-.31.11-7.78,6.06-15.73,12.05-23.84,17.96-1.74,1.27-3.96,2.91-6,3.5-7.89,2.28-15.83-1.87-17.94-9.74-.33-1.23-.49-4.7-.49-10.43.01-55.75,0-95.29-.07-118.61-.01-5.69.43-10.07,1.32-13.12,4.11-14.09,15.76-24.11,30.57-26.64,1.95-.33,5.09-.49,9.4-.49,50.32.05,76.16.08,77.53.07,7.19-.03,13.13.5,17.8,1.59,26.03,6.08,48.56,30.17,48.54,57.99-.01,13.31,0,23.13.03,29.47.03,6.9-.52,12.51-1.67,16.84-2.53,9.59-7,18.03-13.41,25.31-.52.59-.81,1.34-.8,2.13,0,.97.05,21,.14,60.11,0,5.63-.93,9.64-5.22,12.85-5.14,3.83-10.91,4.36-17.31,1.58-3.74-1.63-6.6-3.11-8.57-4.46-3.56-2.43-7.63-4.57-12.22-6.44-.88-.36-1.82-.53-2.76-.52-13.47.21-25.67.22-36.6,0-1.42-.03-4.18-.72-8.28-2.08-13.2-4.38-23.15-15.59-27.77-28.73-.95-2.69-1.46-5.27-1.52-7.74ZM45.03,170.2c9.17-7.43,17.12-13.58,23.84-18.47,2.56-1.86,5.94-2.78,10.14-2.77,18.67.07,39.74.11,63.2.12,6.63,0,11.55-.47,14.74-1.42,5.92-1.77,11.35-4.95,16.3-9.56,8.83-8.23,13.24-18.34,13.23-30.33,0-13.07-.05-22.49-.13-28.27-.05-3.6-.39-6.41-1.02-8.44-4.89-15.84-15.25-25.65-31.09-29.43-1.53-.37-3.21-.58-5.02-.65-1.95-.08-3.65-.12-5.1-.12-20.43-.07-48.09-.08-82.99-.05-8.33,0-13.81,3.68-16.43,11.03-.13.36-.19.75-.19,1.13l-.44,116.77c0,.33.26.59.59.59.13,0,.27-.05.37-.13ZM170.69,205.7v-40.39c0-.28-.23-.5-.5-.5-.08,0-.16.02-.23.06-7.47,3.88-15.58,5.85-24.35,5.9-14.17.09-32.31.09-54.44,0-.17,0-.3.13-.3.3,0,.03,0,.07.01.1,1.56,4.97,2.7,9.07,6.18,13.04,5.03,5.75,11.57,8.69,19.6,8.81,7.12.11,14.75.11,22.9,0,2.45-.03,4.85.16,7.19.57,3.27.57,5.58,1.18,6.92,1.85,5.05,2.49,10.62,5.97,16.69,10.42.09.07.22.05.29-.04.03-.03.04-.08.04-.12Z"/>
  </g>
  <g id="Logo_Text">
    <circle class="st0" cx="920.71" cy="60.31" r="13.57"/>
    <rect class="st1" x="554.52" y="51.61" width="20.9" height="134.93" rx=".8" ry=".8"/>
    <path class="st1" d="M242.93,54.69c0-1.17.95-2.11,2.12-2.11l47.4.16c33.81.11,61.12,27.59,61.01,61.36,0,0,0,0,0,.01l-.05,11.6c-.12,33.77-27.62,61.05-61.42,60.94l-47.4-.16c-1.17,0-2.12-.95-2.12-2.12,0,0,0,0,0-.01l.46-129.68ZM265.66,165.46c0,.61.49,1.11,1.11,1.12,9.37.12,17.73.13,25.08.05,4.39-.06,8.82-.96,12.51-2.11,5-1.54,9.58-4.35,13.72-8.43,5.33-5.23,8.89-11.43,10.7-18.59,3.3-13.01,2.38-28.65-2.88-41.42-3.65-8.86-12.28-17.68-22.31-20.57-4.15-1.2-6.71-1.8-7.69-1.82-8.67-.14-18.01-.16-28.01-.08-1.24.01-2.24,1.02-2.24,2.27v89.58Z"/>
    <path class="st1" d="M676.11,139.38c-.4,28.88-18.24,49.46-47.93,49.05-29.69-.4-46.95-21.48-46.55-50.36.4-28.89,18.24-49.47,47.93-49.06,29.69.41,46.95,21.48,46.55,50.37ZM603.58,138.56c-.06,16.41,6.63,31.91,25.3,31.98,18.67.07,25.46-15.38,25.52-31.8.07-16.4-6.62-31.91-25.29-31.98-18.67-.07-25.47,15.39-25.53,31.8Z"/>
    <path class="st0" d="M863.8,174.77l-1.54,2.14c-.08-.07-.16-.13-.24-.17-.23-.14-.54-.1-.74.1-6.72,7.04-14.88,10.97-24.47,11.78-6.23.53-12.48-.2-18.74-2.19-4.74-1.51-9.45-4.11-12.68-7.93-8.08-9.53-9.2-23.44-1.89-33.61,4.27-5.95,10.53-9.79,18.77-11.5.98-.2,4.33-.75,10.04-1.66,3.23-.51,6.6-.85,10.12-1.01,5.76-.27,11.29-.75,16.6-1.45,3.03-.4,4.67-1.89,4.92-4.48.45-4.83-.89-9.09-4.03-12.75-6.12-7.15-19.37-7.02-27.56-3.74-2.72,1.09-4.8,2.6-6.24,4.54-1.69,2.28-2.77,4.62-3.26,7.02-.15.74-.84,1.24-1.59,1.16-6.15-.63-12.18-.66-18.09-.09-.6.06-1.14-.38-1.19-.98,0-.02,0-.05,0-.07-.23-7.82,4.74-16.18,10.57-20.91,14.09-11.44,37.63-12.16,53.36-6.35,9.65,3.56,16.39,11.84,18.19,22.53.38,2.22,1.02,4.62,1.04,7.44.09,11.5.09,25.12-.01,40.87,0,2.05.99,3.77,3,5.16.34.24.74.37,1.16.37h4.57c.8,0,1.45.63,1.47,1.43.09,2.95.12,7.66.09,14.14,0,1.6-1.1,2.5-3.27,2.72-5.24.51-10.08.54-14.52.08-7.98-.83-10.34-6.09-12.92-12.82-.08-.2-.31-.3-.51-.21-.07.03-.13.07-.17.13l-.24.36ZM862.92,141.86c-1.28-.38-3.36.62-4.8.77-6.58.66-12.39,1.18-17.43,1.55-2.86.21-4.66.35-5.39.43-2.28.23-4.02.6-5.24,1.1-6.05,2.54-9.88,6.75-9.55,13.46.15,3.18,1.45,6,3.9,8.44,1.93,1.93,4.74,3.16,8.41,3.71,8.34,1.21,15.89-.25,22.64-4.4,4.94-3.04,8.02-7.41,8.41-13.36.33-5.02.25-8.64-.23-10.88-.08-.38-.36-.7-.74-.82Z"/>
    <path class="st1" d="M453.32,138.2c.39-28.89,18.21-49.48,47.91-49.09,29.7.39,46.98,21.46,46.6,50.34-.38,28.89-18.21,49.5-47.91,49.1-29.69-.39-46.98-21.46-46.6-50.35ZM475.35,139.41c.35,16.43,7.42,31.77,26.11,31.37,18.68-.39,25.1-16.02,24.75-32.45-.35-16.43-7.42-31.77-26.11-31.37-18.68.39-25.09,16.02-24.75,32.45Z"/>
    <path class="st1" d="M425.23,176.82c0-.46-.19-.71-.59-.75-.53-.05-1.01.15-1.43.6-2.22,2.34-4.88,5.06-8.01,6.86-10.32,5.9-21.3,7-32.94,3.3-14.8-4.7-20.94-18.21-21.18-32.75-.17-10.37-.2-30.58-.1-60.65,0-.8.66-1.45,1.46-1.45h19.67c.6,0,1.08.48,1.08,1.08,0,0,0,.02,0,.02-.28,20.65-.25,40.5.1,59.56.04,2.15.75,4.73,2.13,7.76,2.13,4.67,5.47,7.73,10.03,9.19,12.52,4.01,25.39-2.3,29.11-14.88.63-2.12.94-5.59.93-10.41,0-10.07-.04-27.06-.09-50.98,0-.8.65-1.45,1.45-1.45h18.92c.39,0,.7.31.7.7h0v92.14c0,.96-.78,1.74-1.74,1.74h-18.06c-.71,0-1.29-.58-1.28-1.28,0-.07,0-.14.02-.21.44-2.66.31-5.03-.37-7.1-.08-.24-.06-.5.06-.73.08-.16.13-.26.13-.31Z"/>
    <rect class="st0" x="910.5" y="91.95" width="21.5" height="94.46" rx=".96" ry=".96"/>
    <circle class="st0" cx="776.46" cy="173.29" r="9.5"/>
    <path class="st1" d="M758.57,173.39c0-9.87,8-17.87,17.87-17.87.18,0,.36.02.55.03,0-31.39-.02-52.17-.06-62.32,0-.73-.6-1.31-1.32-1.31h-17.86c-.06,0-.11,0-.17,0-.87.1-1.49.87-1.39,1.74.23,2.16-.09,4.34-.97,6.54l-.23.41c-.16.34-.56.2-1.19-.4-8.69-8.37-19.38-12.03-32.07-10.98-12.96,1.07-23.05,6.46-30.26,16.15-8.32,11.18-10.35,25.36-8.98,39.52,1.77,18.46,13.25,34.24,31.94,38.11,3.43.71,7.72,1.1,12.86,1.15,9.29.1,18.19-3.76,25.1-9.63.12-.1.26-.16.4-.18l.7-.12c.27-.35.55-.61.85-.77.01,0,.03-.01.04-.02.29-.13.63,0,.75.28l.46,1.09c.95,6.16.94,11.58-.03,16.24-2.09,9.98-8.48,15.9-19.19,17.76-3.33.58-8,.37-14.02-.61-4.73-.78-8.93-3.17-12.58-7.17-.21-.24-.38-.51-.51-.81l-1.42-3.45c-.34-.84-1.16-1.39-2.06-1.39-11.63.02-18.08.03-19.34.06-1.68.04-2.32.98-1.92,2.83,3.78,17.67,18.35,26.06,35.19,28.47,1.08.15,5.51.21,13.28.16,3.93-.01,6.2-.89,10.06-1.38.71-.09,2.03-.43,3.95-1.01,14.81-4.47,24.18-13.62,28.12-27.46.45-1.59.82-3.53,1.11-5.79-9.77-.11-17.66-8.06-17.66-17.86ZM755.6,147.39c-1.31,6.73-5.66,12.16-11.91,15.45-6.24,3.28-13.07,4.18-20.49,2.71-14.96-2.97-19.84-17.78-19.15-31.39.35-6.95,2.09-12.79,5.2-17.52,5.86-8.89,15.16-11.77,27.88-8.66,17.59,4.33,21.43,24.3,18.47,39.41Z"/>
  </g>
</svg>